<svg width="316" height="259" viewBox="0 0 316 259" fill="none" xmlns="http://www.w3.org/2000/svg">
<path d="M289.5 0.444336C289.5 0.444336 303.469 7.62586 309.043 11.9483C320 20.4443 315.5 33.4443 301 40.9443C286.5 48.4443 52.5454 105.949 40.5435 110.448C28.5416 114.947 5.04414 129.447 2.04348 141.948C-0.957182 154.449 -0.456987 162.949 11.5435 171.948C23.544 180.947 31.5 186.448 46 189.448C60.5 192.448 79.543 196.949 83.5435 200.948C87.544 204.947 87.8115 208.947 82.544 215.947C77.2764 222.947 64.5439 228.947 61.5439 230.947C55.8692 234.73 46.0435 238.448 51.0439 249.447C56.0444 260.446 79.5435 257.948 79.5435 257.948H130.543L208.543 254.948H245.043" stroke="black"/>
</svg>
