<svg width="38" height="38" viewBox="0 0 38 38" fill="none" xmlns="http://www.w3.org/2000/svg">
<rect width="38" height="38" rx="19" fill="#ff8800"/>
<path d="M19 13.5C19.663 13.5 20.2989 13.7634 20.7678 14.2322C21.2366 14.7011 21.5 15.337 21.5 16C21.5 16.3283 21.4353 16.6534 21.3097 16.9567C21.1841 17.26 20.9999 17.5356 20.7678 17.7678C20.5356 17.9999 20.26 18.1841 19.9567 18.3097C19.6534 18.4353 19.3283 18.5 19 18.5C18.337 18.5 17.7011 18.2366 17.2322 17.7678C16.7634 17.2989 16.5 16.663 16.5 16C16.5 15.337 16.7634 14.7011 17.2322 14.2322C17.7011 13.7634 18.337 13.5 19 13.5ZM19 9C20.8565 9 22.637 9.7375 23.9497 11.0503C25.2625 12.363 26 14.1435 26 16C26 21.25 19 29 19 29C19 29 12 21.25 12 16C12 14.1435 12.7375 12.363 14.0503 11.0503C15.363 9.7375 17.1435 9 19 9ZM19 11C17.6739 11 16.4021 11.5268 15.4645 12.4645C14.5268 13.4021 14 14.6739 14 16C14 17 14 19 19 25.71C24 19 24 17 24 16C24 14.6739 23.4732 13.4021 22.5355 12.4645C21.5979 11.5268 20.3261 11 19 11Z" fill="white"/>
</svg>
