<svg width="38" height="38" viewBox="0 0 38 38" fill="none" xmlns="http://www.w3.org/2000/svg">
<rect width="38" height="38" rx="19" fill="#ff8800"/>
<path d="M11 11C10.4696 11 9.96086 11.2107 9.58579 11.5858C9.21071 11.9609 9 12.4696 9 13V17C9.53043 17 10.0391 17.2107 10.4142 17.5858C10.7893 17.9609 11 18.4696 11 19C11 19.5304 10.7893 20.0391 10.4142 20.4142C10.0391 20.7893 9.53043 21 9 21V25C9 25.5304 9.21071 26.0391 9.58579 26.4142C9.96086 26.7893 10.4696 27 11 27H27C27.5304 27 28.0391 26.7893 28.4142 26.4142C28.7893 26.0391 29 25.5304 29 25V21C28.4696 21 27.9609 20.7893 27.5858 20.4142C27.2107 20.0391 27 19.5304 27 19C27 18.4696 27.2107 17.9609 27.5858 17.5858C27.9609 17.2107 28.4696 17 29 17V13C29 12.4696 28.7893 11.9609 28.4142 11.5858C28.0391 11.2107 27.5304 11 27 11H11ZM22.5 14L24 15.5L15.5 24L14 22.5L22.5 14ZM15.81 14.04C16.79 14.04 17.58 14.83 17.58 15.81C17.58 16.2794 17.3935 16.7296 17.0616 17.0616C16.7296 17.3935 16.2794 17.58 15.81 17.58C14.83 17.58 14.04 16.79 14.04 15.81C14.04 15.3406 14.2265 14.8904 14.5584 14.5584C14.8904 14.2265 15.3406 14.04 15.81 14.04ZM22.19 20.42C23.17 20.42 23.96 21.21 23.96 22.19C23.96 22.6594 23.7735 23.1096 23.4416 23.4416C23.1096 23.7735 22.6594 23.96 22.19 23.96C21.21 23.96 20.42 23.17 20.42 22.19C20.42 21.7206 20.6065 21.2704 20.9384 20.9384C21.2704 20.6065 21.7206 20.42 22.19 20.42Z" fill="white"/>
</svg>
