<svg width="127" height="544" viewBox="0 0 127 544" fill="none" xmlns="http://www.w3.org/2000/svg">
<path d="M58.6953 0.387695C58.6953 0.387695 87.9947 24.2034 93.1953 45.8877C103.096 87.1685 17.5234 92.4326 28.6952 133.388C38.4951 169.313 130.549 141.905 126.195 178.888C123.431 202.368 69.6953 227.888 69.6953 227.888M93.1953 341.888C93.1953 341.888 135.695 396.398 69.6953 405.888C3.69534 415.378 -15.3643 457.388 13.6952 457.388C30.6952 457.388 63.6952 439.888 93.1953 457.388C122.695 474.888 88.8977 510.388 84.1952 514.888C79.4928 519.388 75.6952 521.888 75.6952 527.888C75.6952 533.888 80.78 538.778 87.1952 541.388C92.4405 543.521 99.1952 542.888 99.1952 542.888" stroke="white"/>
</svg>
